<?xml version="1.0" encoding="UTF-8"?> <svg xmlns="http://www.w3.org/2000/svg" width="700" height="170" viewBox="0 0 700 170" fill="none"> <path d="M699.533 84.8009C699.533 131.551 661.467 169.535 614.467 169.535C567.533 169.535 529.4 131.617 529.4 84.8009C529.4 38.0509 567.467 0.0664673 614.467 0.0664673C661.467 0.132874 699.533 38.0509 699.533 84.8009ZM614.467 63.418C602.6 63.418 593 72.9805 593 84.8009C593 96.6212 602.6 106.184 614.467 106.184C626.333 106.184 635.933 96.6212 635.933 84.8009C635.933 72.9805 626.333 63.418 614.467 63.418Z" fill="black"></path> <path d="M221.467 103.062V4.64843H183.133V164.953H217.267L293.933 66.5391V164.953H332.267V4.64843H298.2L221.467 103.062Z" fill="black"></path> <path d="M447.533 4.64843V65.7422H422.267V4.64843H354.867V164.953H422.267V100.871H447.533V164.953H515V4.64843H447.533Z" fill="black"></path> <path d="M165.933 164.953L120.067 70.3906L159.4 4.64843H93.7333L67.6 51.0664V4.64843H0.200012V164.953H67.6V113.82L92.4 164.953H165.933Z" fill="black"></path> </svg> 